# xmcd
# 
# Track frame offsets:
#     150
#     35850
#     69238
#     113793
#     136552
#     187659
#     220715
# 
# Disc length: 3388
# 
# Revision: 0
# Processed by: cddbd v1.5.2PL0 Copyright (c) Steve Scherf et al.
# Submitted via: fre:ac v1.0.17
# 
DISCID=560d3a07
DTITLE=KAYNO YESNO SLONCE - KAYNO YESNO SLONCE
DYEAR=2015
DGENRE=Ethno
TTITLE0=Goritse Sitna Zelena
TTITLE1=Pyrvom, Pyrvom
TTITLE2=Pilentse Postro Slaveyche
TTITLE3=Ainos
TTITLE4=Oriente
TTITLE5=Syzygy
TTITLE6=Doka e deba potaina
EXTD=
EXTT0=
EXTT1=
EXTT2=
EXTT3=
EXTT4=
EXTT5=
EXTT6=
PLAYORDER=
